<?xml version="1.0" encoding="UTF-8"?>
<svg width="60px" height="60px" viewBox="0 0 60 60" version="1.1" xmlns="http://www.w3.org/2000/svg" xmlns:xlink="http://www.w3.org/1999/xlink">
    <!-- Generator: Sketch 50 (54983) - http://www.bohemiancoding.com/sketch -->
    <title>imac-iphone-ipad</title>
    <desc>Created with Sketch.</desc>
    <defs></defs>
    <g id="MVP" stroke="none" stroke-width="1" fill="none" fill-rule="evenodd">
        <g id="01_Home_Page" transform="translate(-910.000000, -1163.000000)" fill="#A291FF">
            <g id="Group-6" transform="translate(740.000000, 1110.000000)">
                <path d="M230,58 L230,84 C230,84.552 229.553,85 229,85 C228.447,85 228,84.552 228,84 L228,58 C228,56.346 226.654,55 225,55 L175,55 C173.346,55 172,56.346 172,58 L172,76 C172,76.552 171.553,77 171,77 C170.447,77 170,76.552 170,76 L170,58 C170,55.243 172.243,53 175,53 L225,53 C227.757,53 230,55.243 230,58 L230,58 Z M213,87 L199,87 C198.447,87 198,87.448 198,88 C198,88.552 198.447,89 199,89 L213,89 C213.553,89 214,88.552 214,88 C214,87.448 213.553,87 213,87 L213,87 Z M213,97 L199,97 C198.447,97 198,97.448 198,98 C198,98.552 198.447,99 199,99 L213,99 C213.553,99 214,98.552 214,98 C214,97.448 213.553,97 213,97 L213,97 Z M200,95 C201.103,95 202,94.103 202,93 C202,91.897 201.103,91 200,91 C198.898,91 198,91.897 198,93 C198,94.103 198.898,95 200,95 L200,95 Z M223.03,107 L223.019,107 C222.468,107 222.025,107.448 222.025,108 C222.025,108.552 222.477,109 223.03,109 C223.582,109 224.03,108.552 224.03,108 C224.03,107.448 223.582,107 223.03,107 L223.03,107 Z M183.03,107 L183.019,107 C182.468,107 182.025,107.448 182.025,108 C182.025,108.552 182.477,109 183.03,109 C183.582,109 184.03,108.552 184.03,108 C184.03,107.448 183.582,107 183.03,107 L183.03,107 Z M209,107 L206,107 L206,102 C206,101.448 205.553,101 205,101 C204.447,101 204,101.448 204,102 L204,108 C204,108.552 204.447,109 205,109 L209,109 C210.881,109 211.585,110.111 211.847,111 L199,111 C198.447,111 198,111.448 198,112 C198,112.552 198.447,113 199,113 L213,113 C213.553,113 214,112.552 214,112 C214,110.271 212.955,107 209,107 L209,107 Z M199,109 L201,109 C201.553,109 202,108.552 202,108 C202,107.448 201.553,107 201,107 L199,107 C198.447,107 198,107.448 198,108 C198,108.552 198.447,109 199,109 L199,109 Z M196,82 L196,110 C196,111.654 194.654,113 193,113 L173,113 C171.346,113 170,111.654 170,110 L170,82 C170,80.346 171.346,79 173,79 L193,79 C194.654,79 196,80.346 196,82 L196,82 Z M194,82 C194,81.449 193.552,81 193,81 L173,81 C172.448,81 172,81.449 172,82 L172,110 C172,110.551 172.448,111 173,111 L193,111 C193.552,111 194,110.551 194,110 L194,82 L194,82 Z M230,90 L230,110 C230,111.654 228.654,113 227,113 L219,113 C217.346,113 216,111.654 216,110 L216,90 C216,88.346 217.346,87 219,87 L227,87 C228.654,87 230,88.346 230,90 L230,90 Z M228,90 C228,89.449 227.552,89 227,89 L219,89 C218.448,89 218,89.449 218,90 L218,110 C218,110.551 218.448,111 219,111 L227,111 C227.552,111 228,110.551 228,110 L228,90 L228,90 Z M223,63 C223.256,63 223.512,62.902 223.707,62.707 C224.098,62.316 224.098,61.684 223.707,61.293 L221.707,59.293 C221.316,58.902 220.684,58.902 220.293,59.293 C219.902,59.684 219.902,60.316 220.293,60.707 L222.293,62.707 C222.488,62.902 222.744,63 223,63 L223,63 Z M223,69 C223.256,69 223.512,68.902 223.707,68.707 C224.098,68.316 224.098,67.684 223.707,67.293 L215.707,59.293 C215.316,58.902 214.684,58.902 214.293,59.293 C213.902,59.684 213.902,60.316 214.293,60.707 L222.293,68.707 C222.488,68.902 222.744,69 223,69 L223,69 Z" id="imac-iphone-ipad"></path>
            </g>
        </g>
    </g>
</svg>