<?xml version="1.0" encoding="UTF-8"?>
<svg width="60px" height="60px" viewBox="0 0 60 60" version="1.1" xmlns="http://www.w3.org/2000/svg" xmlns:xlink="http://www.w3.org/1999/xlink">
    <!-- Generator: Sketch 50 (54983) - http://www.bohemiancoding.com/sketch -->
    <title>group-force</title>
    <desc>Created with Sketch.</desc>
    <defs></defs>
    <g id="MVP" stroke="none" stroke-width="1" fill="none" fill-rule="evenodd">
        <g id="01_Home_Page" transform="translate(-470.000000, -1411.000000)" fill="#A291FF">
            <g id="Group-5" transform="translate(300.000000, 1365.000000)">
                <path d="M191,86 C190.71,86 189.89,85.1 189.347,84.503 C187.714,82.71 185.246,80 181,80 C176.867,80 176,81.087 176,82 C176,82.552 176.447,83 177,83 C177.404,83 177.753,82.76 177.91,82.415 C178.107,82.306 178.854,82 181,82 C184.362,82 186.307,84.135 187.868,85.85 C188.962,87.051 189.826,88 191,88 L204,88 C204.553,88 205,87.552 205,87 C205,86.448 204.553,86 204,86 L191,86 Z M201,98 L191,98 C189.949,98 188.613,98.414 187.067,98.894 C185.396,99.412 183.5,100 182,100 L173,100 C172.448,100 172,99.551 172,99 C172,98.449 172.448,98 173,98 C173.553,98 174,97.552 174,97 C174,96.448 173.553,96 173,96 C172.448,96 172,95.551 172,95 C172,94.449 172.448,94 173,94 C173.553,94 174,93.552 174,93 C174,92.448 173.553,92 173,92 C172.448,92 172,91.551 172,91 C172,90.449 172.448,90 173,90 C173.553,90 174,89.552 174,89 C174,88.448 173.553,88 173,88 C172.448,88 172,87.551 172,87 C172,86.449 172.448,86 173,86 L181,86 C181.553,86 182,85.552 182,85 C182,84.448 181.553,84 181,84 L173,84 C171.346,84 170,85.346 170,87 C170,87.768 170.29,88.469 170.766,89 C170.29,89.531 170,90.232 170,91 C170,91.768 170.29,92.469 170.766,93 C170.29,93.531 170,94.232 170,95 C170,95.768 170.29,96.469 170.766,97 C170.29,97.531 170,98.232 170,99 C170,100.654 171.346,102 173,102 L176,102 L176,105 C176,105.552 176.447,106 177,106 C177.553,106 178,105.552 178,105 L178,102 L182,102 C183.803,102 185.852,101.365 187.659,100.804 C187.775,100.768 187.886,100.735 188,100.7 L188,105 C188,105.552 188.447,106 189,106 C189.553,106 190,105.552 190,105 L190,100.146 C190.381,100.062 190.731,100 191,100 L201,100 C201.553,100 202,99.552 202,99 C202,98.448 201.553,98 201,98 L201,98 Z M230,87 C230,86.448 229.553,86 229,86 L224.146,86 C224.063,85.62 224,85.269 224,85 L224,75 C224,74.448 223.553,74 223,74 C222.447,74 222,74.448 222,75 L222,85 C222,86.05 222.414,87.386 222.894,88.933 C223.412,90.605 224,92.5 224,94 L224,103 C224,103.551 223.552,104 223,104 C222.448,104 222,103.551 222,103 C222,102.448 221.553,102 221,102 C220.447,102 220,102.448 220,103 C220,103.551 219.552,104 219,104 C218.448,104 218,103.551 218,103 C218,102.448 217.553,102 217,102 C216.447,102 216,102.448 216,103 C216,103.551 215.552,104 215,104 C214.448,104 214,103.551 214,103 C214,102.448 213.553,102 213,102 C212.447,102 212,102.448 212,103 C212,103.551 211.552,104 211,104 C210.448,104 210,103.551 210,103 L210,95 C210,94.448 209.553,94 209,94 C208.447,94 208,94.448 208,95 L208,103 C208,104.654 209.346,106 211,106 C211.768,106 212.469,105.71 213,105.234 C213.531,105.71 214.232,106 215,106 C215.768,106 216.469,105.71 217,105.234 C217.531,105.71 218.232,106 219,106 C219.768,106 220.469,105.71 221,105.234 C221.531,105.71 222.232,106 223,106 C224.654,106 226,104.654 226,103 L226,100 L229,100 C229.553,100 230,99.552 230,99 C230,98.448 229.553,98 229,98 L226,98 L226,94 C226,92.197 225.364,90.148 224.804,88.34 C224.768,88.225 224.734,88.114 224.699,88 L229,88 C229.553,88 230,87.552 230,87 L230,87 Z M206.414,98.09 C206.306,97.892 206,97.146 206,95 C206,91.638 208.135,89.694 209.851,88.132 C211.052,87.038 212,86.174 212,85 L212,72 C212,71.448 211.553,71 211,71 C210.447,71 210,71.448 210,72 L210,85 C210,85.29 209.1,86.11 208.504,86.653 C206.71,88.286 204,90.754 204,95 C204,99.132 205.088,100 206,100 C206.553,100 207,99.552 207,99 C207,98.596 206.76,98.247 206.414,98.09 L206.414,98.09 Z M210.653,67.497 C212.286,69.29 214.754,72 219,72 C223.133,72 224,70.913 224,70 C224,69.448 223.553,69 223,69 C222.596,69 222.247,69.24 222.09,69.585 C221.893,69.694 221.146,70 219,70 C215.638,70 213.693,67.865 212.132,66.15 C211.038,64.949 210.174,64 209,64 L196,64 C195.447,64 195,64.448 195,65 C195,65.552 195.447,66 196,66 L209,66 C209.29,66 210.11,66.9 210.653,67.497 L210.653,67.497 Z M229.234,55 C229.71,54.469 230,53.768 230,53 C230,51.346 228.654,50 227,50 L224,50 L224,47 C224,46.448 223.553,46 223,46 C222.447,46 222,46.448 222,47 L222,50 L218,50 C216.197,50 214.148,50.635 212.341,51.196 C212.225,51.232 212.114,51.265 212,51.3 L212,47 C212,46.448 211.553,46 211,46 C210.447,46 210,46.448 210,47 L210,51.854 C209.619,51.938 209.269,52 209,52 L199,52 C198.447,52 198,52.448 198,53 C198,53.552 198.447,54 199,54 L209,54 C210.051,54 211.387,53.586 212.933,53.106 C214.604,52.588 216.5,52 218,52 L227,52 C227.552,52 228,52.449 228,53 C228,53.551 227.552,54 227,54 C226.447,54 226,54.448 226,55 C226,55.552 226.447,56 227,56 C227.552,56 228,56.449 228,57 C228,57.551 227.552,58 227,58 C226.447,58 226,58.448 226,59 C226,59.552 226.447,60 227,60 C227.552,60 228,60.449 228,61 C228,61.551 227.552,62 227,62 C226.447,62 226,62.448 226,63 C226,63.552 226.447,64 227,64 C227.552,64 228,64.449 228,65 C228,65.551 227.552,66 227,66 L219,66 C218.447,66 218,66.448 218,67 C218,67.552 218.447,68 219,68 L227,68 C228.654,68 230,66.654 230,65 C230,64.232 229.71,63.531 229.234,63 C229.71,62.469 230,61.768 230,61 C230,60.232 229.71,59.531 229.234,59 C229.71,58.469 230,57.768 230,57 C230,56.232 229.71,55.531 229.234,55 L229.234,55 Z M170,65 C170,65.552 170.447,66 171,66 L175.854,66 C175.937,66.38 176,66.731 176,67 L176,77 C176,77.552 176.447,78 177,78 C177.553,78 178,77.552 178,77 L178,67 C178,65.95 177.586,64.614 177.106,63.067 C176.588,61.395 176,59.5 176,58 L176,49 C176,48.449 176.448,48 177,48 C177.552,48 178,48.449 178,49 C178,49.552 178.447,50 179,50 C179.553,50 180,49.552 180,49 C180,48.449 180.448,48 181,48 C181.552,48 182,48.449 182,49 C182,49.552 182.447,50 183,50 C183.553,50 184,49.552 184,49 C184,48.449 184.448,48 185,48 C185.552,48 186,48.449 186,49 C186,49.552 186.447,50 187,50 C187.553,50 188,49.552 188,49 C188,48.449 188.448,48 189,48 C189.552,48 190,48.449 190,49 L190,57 C190,57.552 190.447,58 191,58 C191.553,58 192,57.552 192,57 L192,49 C192,47.346 190.654,46 189,46 C188.232,46 187.531,46.29 187,46.766 C186.469,46.29 185.768,46 185,46 C184.232,46 183.531,46.29 183,46.766 C182.469,46.29 181.768,46 181,46 C180.232,46 179.531,46.29 179,46.766 C178.469,46.29 177.768,46 177,46 C175.346,46 174,47.346 174,49 L174,52 L171,52 C170.447,52 170,52.448 170,53 C170,53.552 170.447,54 171,54 L174,54 L174,58 C174,59.803 174.636,61.852 175.196,63.66 C175.232,63.775 175.266,63.886 175.301,64 L171,64 C170.447,64 170,64.448 170,65 L170,65 Z M193,53 C193,52.448 193.447,52 194,52 C194.912,52 196,52.868 196,57 C196,61.246 193.29,63.714 191.496,65.347 C190.9,65.89 190,66.71 190,67 L190,80 C190,80.552 189.553,81 189,81 C188.447,81 188,80.552 188,80 L188,67 C188,65.826 188.948,64.962 190.149,63.868 C191.865,62.306 194,60.362 194,57 C194,54.854 193.694,54.108 193.586,53.91 C193.24,53.753 193,53.404 193,53 L193,53 Z" id="group-force"></path>
            </g>
        </g>
    </g>
</svg>