<?xml version="1.0" encoding="UTF-8"?>
<svg width="60px" height="60px" viewBox="0 0 60 60" version="1.1" xmlns="http://www.w3.org/2000/svg" xmlns:xlink="http://www.w3.org/1999/xlink">
    <!-- Generator: Sketch 50 (54983) - http://www.bohemiancoding.com/sketch -->
    <title>calendar</title>
    <desc>Created with Sketch.</desc>
    <defs></defs>
    <g id="MVP" stroke="none" stroke-width="1" fill="none" fill-rule="evenodd">
        <g id="01_Home_Page" transform="translate(-910.000000, -1411.000000)" fill="#A291FF">
            <g id="Group-6" transform="translate(740.000000, 1365.000000)">
                <path d="M205,90 C205.552,90 206,89.552 206,89 C206,88.448 205.552,88 205,88 L203,88 C202.448,88 202,88.448 202,89 L202,93 C202,93.552 202.448,94 203,94 L205,94 C205.552,94 206,93.552 206,93 C206,92.448 205.552,92 205,92 L204,92 L204,90 L205,90 Z M220,94 L220,91 C220,90.448 219.552,90 219,90 C218.448,90 218,90.448 218,91 L218,95 C218,95.552 218.448,96 219,96 L225,96 C225.552,96 226,95.552 226,95 C226,94.448 225.552,94 225,94 L220,94 Z M228,95 C228,90.038 223.962,86 219,86 C214.038,86 210,90.038 210,95 C210,99.962 214.038,104 219,104 C223.962,104 228,99.962 228,95 L228,95 Z M230,95 C230,101.065 225.065,106 219,106 C212.935,106 208,101.065 208,95 C208,88.935 212.935,84 219,84 C225.065,84 230,88.935 230,95 L230,95 Z M216,70 L214,70 L214,72 L216,72 L216,70 Z M218,73 C218,73.552 217.552,74 217,74 L213,74 C212.448,74 212,73.552 212,73 L212,69 C212,68.448 212.448,68 213,68 L217,68 C217.552,68 218,68.448 218,69 L218,73 Z M196,90 L194,90 L194,92 L196,92 L196,90 Z M198,89 L198,93 C198,93.552 197.552,94 197,94 L193,94 C192.448,94 192,93.552 192,93 L192,89 C192,88.448 192.448,88 193,88 L197,88 C197.552,88 198,88.448 198,89 L198,89 Z M186,90 L184,90 L184,92 L186,92 L186,90 Z M188,89 L188,93 C188,93.552 187.552,94 187,94 L183,94 C182.448,94 182,93.552 182,93 L182,89 C182,88.448 182.448,88 183,88 L187,88 C187.552,88 188,88.448 188,89 L188,89 Z M206,70 L204,70 L204,72 L206,72 L206,70 Z M208,73 C208,73.552 207.552,74 207,74 L203,74 C202.448,74 202,73.552 202,73 L202,69 C202,68.448 202.448,68 203,68 L207,68 C207.552,68 208,68.448 208,69 L208,73 Z M217,82 C217.552,82 218,81.552 218,81 L218,79 C218,78.448 217.552,78 217,78 L213,78 C212.448,78 212,78.448 212,79 L212,81 C212,81.552 212.448,82 213,82 C213.552,82 214,81.552 214,81 L214,80 L216,80 L216,81 C216,81.552 216.448,82 217,82 L217,82 Z M206,80 L204,80 L204,82 L206,82 L206,80 Z M207,84 L203,84 C202.448,84 202,83.552 202,83 L202,79 C202,78.448 202.448,78 203,78 L207,78 C207.552,78 208,78.448 208,79 L208,83 C208,83.552 207.552,84 207,84 L207,84 Z M196,80 L194,80 L194,82 L196,82 L196,80 Z M198,83 C198,83.552 197.552,84 197,84 L193,84 C192.448,84 192,83.552 192,83 L192,79 C192,78.448 192.448,78 193,78 L197,78 C197.552,78 198,78.448 198,79 L198,83 Z M196,70 L194,70 L194,72 L196,72 L196,70 Z M198,73 C198,73.552 197.552,74 197,74 L193,74 C192.448,74 192,73.552 192,73 L192,69 C192,68.448 192.448,68 193,68 L197,68 C197.552,68 198,68.448 198,69 L198,73 Z M186,80 L184,80 L184,82 L186,82 L186,80 Z M188,83 C188,83.552 187.552,84 187,84 L183,84 C182.448,84 182,83.552 182,83 L182,79 C182,78.448 182.448,78 183,78 L187,78 C187.552,78 188,78.448 188,79 L188,83 Z M186,70 L184,70 L184,72 L186,72 L186,70 Z M188,73 C188,73.552 187.552,74 187,74 L183,74 C182.448,74 182,73.552 182,73 L182,69 C182,68.448 182.448,68 183,68 L187,68 C187.552,68 188,68.448 188,69 L188,73 Z M214,53 C214,53.551 214.449,54 215,54 C215.551,54 216,53.551 216,53 L216,49 C216,48.449 215.551,48 215,48 C214.449,48 214,48.449 214,49 L214,53 Z M212,53 L212,49 C212,47.346 213.346,46 215,46 C216.654,46 218,47.346 218,49 L218,53 C218,54.654 216.654,56 215,56 C213.346,56 212,54.654 212,53 L212,53 Z M204,53 C204,53.551 204.449,54 205,54 C205.551,54 206,53.551 206,53 L206,49 C206,48.449 205.551,48 205,48 C204.449,48 204,48.449 204,49 L204,53 Z M202,53 L202,49 C202,47.346 203.346,46 205,46 C206.654,46 208,47.346 208,49 L208,53 C208,54.654 206.654,56 205,56 C203.346,56 202,54.654 202,53 L202,53 Z M194,53 C194,53.551 194.449,54 195,54 C195.551,54 196,53.551 196,53 L196,49 C196,48.449 195.551,48 195,48 C194.449,48 194,48.449 194,49 L194,53 Z M192,53 L192,49 C192,47.346 193.346,46 195,46 C196.654,46 198,47.346 198,49 L198,53 C198,54.654 196.654,56 195,56 C193.346,56 192,54.654 192,53 L192,53 Z M184,53 C184,53.551 184.449,54 185,54 C185.551,54 186,53.551 186,53 L186,49 C186,48.449 185.551,48 185,48 C184.449,48 184,48.449 184,49 L184,53 Z M182,53 L182,49 C182,47.346 183.346,46 185,46 C186.654,46 188,47.346 188,49 L188,53 C188,54.654 186.654,56 185,56 C183.346,56 182,54.654 182,53 L182,53 Z M225,83 C225.552,83 226,82.552 226,82 L226,63 C226,62.448 225.552,62 225,62 L175,62 C174.448,62 174,62.448 174,63 L174,98 C174,100.206 175.794,102 178,102 L206,102 C206.552,102 207,101.552 207,101 C207,100.448 206.552,100 206,100 L178,100 C176.897,100 176,99.103 176,98 L176,64 L224,64 L224,82 C224,82.552 224.448,83 225,83 L225,83 Z M208,104 L175,104 C173.542,104 172,102.458 172,101 L172,60 L225,60 C225.552,60 226,59.552 226,59 C226,58.448 225.552,58 225,58 L171,58 C170.448,58 170,58.448 170,59 L170,101 C170,103.57 172.43,106 175,106 L208,106 C208.552,106 209,105.552 209,105 C209,104.448 208.552,104 208,104 L208,104 Z M225,48 L221,48 C220.448,48 220,48.448 220,49 C220,49.552 220.448,50 221,50 L225,50 C226.458,50 228,51.542 228,53 L228,84 C228,84.552 228.448,85 229,85 C229.552,85 230,84.552 230,84 L230,53 C230,50.43 227.57,48 225,48 L225,48 Z M170,55 L170,53 C170,50.43 172.43,48 175,48 L179,48 C179.552,48 180,48.448 180,49 C180,49.552 179.552,50 179,50 L175,50 C173.542,50 172,51.542 172,53 L172,55 C172,55.552 171.552,56 171,56 C170.448,56 170,55.552 170,55 L170,55 Z" id="calendar"></path>
            </g>
        </g>
    </g>
</svg>