<?xml version="1.0" encoding="UTF-8"?>
<svg width="57px" height="60px" viewBox="0 0 57 60" version="1.1" xmlns="http://www.w3.org/2000/svg" xmlns:xlink="http://www.w3.org/1999/xlink">
    <!-- Generator: Sketch 50 (54983) - http://www.bohemiancoding.com/sketch -->
    <title>paper-exam</title>
    <desc>Created with Sketch.</desc>
    <defs></defs>
    <g id="MVP" stroke="none" stroke-width="1" fill="none" fill-rule="evenodd">
        <g id="01_Home_Page" transform="translate(-471.000000, -1163.000000)" fill="#A291FF">
            <g id="Group-5" transform="translate(300.000000, 1110.000000)">
                <path d="M203.844828,112 C203.844828,112.552 203.396828,113 202.844828,113 L176.844828,113 C174.087828,113 171.844828,110.757 171.844828,108 L171.844828,58 C171.844828,55.243 174.087828,53 176.844828,53 L208.844828,53 C209.109828,53 209.364828,53.105 209.551828,53.293 L219.551828,63.293 C219.942828,63.684 219.942828,64.316 219.551828,64.707 C219.160828,65.098 218.528828,65.098 218.137828,64.707 L208.430828,55 L176.844828,55 C175.190828,55 173.844828,56.346 173.844828,58 L173.844828,108 C173.844828,109.654 175.190828,111 176.844828,111 L202.844828,111 C203.396828,111 203.844828,111.448 203.844828,112 L203.844828,112 Z M209.844828,64 L209.844828,59 C209.844828,58.448 209.396828,58 208.844828,58 C208.292828,58 207.844828,58.448 207.844828,59 L207.844828,64 C207.844828,66.757 210.087828,69 212.844828,69 L221.844828,69 L221.844828,88 C221.844828,88.552 222.292828,89 222.844828,89 C223.396828,89 223.844828,88.552 223.844828,88 L223.844828,68 C223.844828,67.448 223.396828,67 222.844828,67 L212.844828,67 C211.190828,67 209.844828,65.654 209.844828,64 L209.844828,64 Z M194.844828,73 L204.844828,73 C205.396828,73 205.844828,72.552 205.844828,72 C205.844828,71.448 205.396828,71 204.844828,71 L194.844828,71 C194.292828,71 193.844828,71.448 193.844828,72 C193.844828,72.552 194.292828,73 194.844828,73 L194.844828,73 Z M201.844828,78 C201.844828,77.448 201.396828,77 200.844828,77 L194.844828,77 C194.292828,77 193.844828,77.448 193.844828,78 C193.844828,78.552 194.292828,79 194.844828,79 L200.844828,79 C201.396828,79 201.844828,78.552 201.844828,78 L201.844828,78 Z M212.844828,77 L204.844828,77 C204.292828,77 203.844828,77.448 203.844828,78 C203.844828,78.552 204.292828,79 204.844828,79 L212.844828,79 C213.396828,79 213.844828,78.552 213.844828,78 C213.844828,77.448 213.396828,77 212.844828,77 L212.844828,77 Z M194.844828,83 C194.292828,83 193.844828,83.448 193.844828,84 C193.844828,84.552 194.292828,85 194.844828,85 L196.844828,85 C197.396828,85 197.844828,84.552 197.844828,84 C197.844828,83.448 197.396828,83 196.844828,83 L194.844828,83 L194.844828,83 Z M206.844828,95 C206.292828,95 205.844828,95.448 205.844828,96 C205.844828,96.552 206.292828,97 206.844828,97 L208.844828,97 C209.396828,97 209.844828,96.552 209.844828,96 C209.844828,95.448 209.396828,95 208.844828,95 L206.844828,95 L206.844828,95 Z M200.844828,85 L210.844828,85 C211.396828,85 211.844828,84.552 211.844828,84 C211.844828,83.448 211.396828,83 210.844828,83 L200.844828,83 C200.292828,83 199.844828,83.448 199.844828,84 C199.844828,84.552 200.292828,85 200.844828,85 L200.844828,85 Z M202.844828,89 L194.844828,89 C194.292828,89 193.844828,89.448 193.844828,90 C193.844828,90.552 194.292828,91 194.844828,91 L202.844828,91 C203.396828,91 203.844828,90.552 203.844828,90 C203.844828,89.448 203.396828,89 202.844828,89 L202.844828,89 Z M202.844828,95 L194.844828,95 C194.292828,95 193.844828,95.448 193.844828,96 C193.844828,96.552 194.292828,97 194.844828,97 L202.844828,97 C203.396828,97 203.844828,96.552 203.844828,96 C203.844828,95.448 203.396828,95 202.844828,95 L202.844828,95 Z M213.844828,90 C213.844828,89.448 213.396828,89 212.844828,89 L206.844828,89 C206.292828,89 205.844828,89.448 205.844828,90 C205.844828,90.552 206.292828,91 206.844828,91 L212.844828,91 C213.396828,91 213.844828,90.552 213.844828,90 L213.844828,90 Z M202.844828,101 L194.844828,101 C194.292828,101 193.844828,101.448 193.844828,102 C193.844828,102.552 194.292828,103 194.844828,103 L202.844828,103 C203.396828,103 203.844828,102.552 203.844828,102 C203.844828,101.448 203.396828,101 202.844828,101 L202.844828,101 Z M226.653828,99.605 L213.551828,112.707 C213.364828,112.894 213.109828,113 212.844828,113 L206.844828,113 C206.292828,113 205.844828,112.552 205.844828,112 L205.844828,106 C205.844828,105.735 205.950828,105.48 206.137828,105.293 L219.239828,92.191 C220.774828,90.657 223.116828,90.654 224.653828,92.191 L226.653828,94.191 C228.246828,95.785 228.246828,98.012 226.653828,99.605 L226.653828,99.605 Z M222.532828,100.898 L220.946828,99.312 L212.258828,108 L213.844828,109.586 L222.532828,100.898 L222.532828,100.898 Z M219.532828,97.898 L217.946828,96.312 L209.258828,105 L210.844828,106.586 L219.532828,97.898 L219.532828,97.898 Z M212.430828,111 L207.844828,106.414 L207.844828,111 L212.430828,111 L212.430828,111 Z M225.239828,95.605 L223.239828,93.605 C222.445828,92.812 221.443828,92.816 220.653828,93.605 L219.360828,94.898 L223.946828,99.484 L225.239828,98.191 C226.048828,97.382 226.048828,96.415 225.239828,95.605 L225.239828,95.605 Z M189.844828,78 C189.844828,78.552 189.396828,79 188.844828,79 L182.844828,79 C182.292828,79 181.844828,78.552 181.844828,78 L181.844828,72 C181.844828,71.448 182.292828,71 182.844828,71 L188.844828,71 C189.396828,71 189.844828,71.448 189.844828,72 L189.844828,78 L189.844828,78 Z M183.844828,77 L187.844828,77 L187.844828,73 L183.844828,73 L183.844828,77 Z M181.844828,96 C181.844828,95.448 182.292828,95 182.844828,95 L188.844828,95 C189.396828,95 189.844828,95.448 189.844828,96 L189.844828,102 C189.844828,102.552 189.396828,103 188.844828,103 L182.844828,103 C182.292828,103 181.844828,102.552 181.844828,102 L181.844828,96 L181.844828,96 Z M183.844828,101 L187.844828,101 L187.844828,97 L183.844828,97 L183.844828,101 Z M184.137828,90.707 C184.325828,90.895 184.580828,91 184.844828,91 C184.877828,91 184.909828,90.999 184.943828,90.995 C185.241828,90.966 185.510828,90.804 185.676828,90.555 L189.676828,84.555 C189.982828,84.095 189.858828,83.474 189.399828,83.168 C188.938828,82.861 188.319828,82.986 188.012828,83.445 L184.689828,88.43 L183.551828,87.293 C183.160828,86.902 182.528828,86.902 182.137828,87.293 C181.746828,87.684 181.746828,88.316 182.137828,88.707 L184.137828,90.707 L184.137828,90.707 Z" id="paper-exam"></path>
            </g>
        </g>
    </g>
</svg>